<?xml version="1.0" encoding="utf-8"?>
<!-- Generator: Adobe Illustrator 24.0.1, SVG Export Plug-In . SVG Version: 6.00 Build 0)  -->
<svg version="1.1" id="Layer_1" xmlns="http://www.w3.org/2000/svg" xmlns:xlink="http://www.w3.org/1999/xlink" x="0px" y="0px"
	 viewBox="0 0 1569.9 1082.6" style="enable-background:new 0 0 1569.9 1082.6;" xml:space="preserve">
<style type="text/css">
	.st0{fill:#F8C34F;}
	.st1{fill:#DE9E46;}
	.st2{fill:#EFEFEF;}
	.st3{fill:#A7A7A7;}
	.st4{fill:#7C4B4A;}
	.st5{fill:#965450;}
	.st6{fill:#FFFFFF;}
	.st7{fill:#141C1E;}
	.st8{fill:#4C555A;}
	.st9{fill:#1370B6;}
	.st10{fill:#004D7D;}
	.st11{fill:#F8F8F8;}
	.st12{opacity:0.65;fill:#D6B5D2;}
	.st13{fill:#E0E0E0;}
	.st14{fill:#AD5C49;}
	.st15{fill:#F7936A;}
	.st16{fill:#FFBB9A;}
	.st17{fill:#DEDFE1;}
	.st18{fill:#5DD4E2;}
	.st19{fill:#993821;}
	.st20{fill:#B6B6B6;}
	.st21{fill:#48525B;}
	.st22{fill:#7695A8;}
	.st23{fill:#CCCCCC;}
</style>
<path class="st0" d="M1313.4,317.3c-65.5-23.7-105.6-98.9-168.7-125.9c-58.4-25-125.8-13.7-184.3,4.7
	c-57.9,18.2-107.3,59.3-167.7,68.9c-25.1,4-54.5,1.5-78-6.9c-23.4-8.3-56.7-30.3-78.3-16c0.7-0.6,4.8-4.7,6.6-6.2
	c-1.4-0.6-2.5-1.1-1.8-2.9c-0.3,0.1-6.7,0-9,0.2c-0.1-0.6-0.2-3.9-0.1-3.8c-22.8-5.2-51.5-15.2-78.3-17
	c-55.2-3.8-91.1,28.8-138.6,47.5c-22.2,8.7-44,16.2-64.9,27.5c-48.2,26.2-68.6,65.1-81.1,118C237.8,538.2,80.8,569.4,20,685.3
	c-15,28.5-17.1,56.1-9.1,86.4C28.5,837.6,66.2,899.3,129.6,929c72,33.8,154.6,32.5,232.4,34.6c55,1.5,111.9,9.1,158.2,41.4
	c31.9,22.3,59.6,49.3,86.2,77.6H1570c0-13,0-26.1,0-39.1c0-125.5,0-251.1,0-376.6c0-89.2-4.9-181.1,0.2-269.6
	c-24.9-14.2-45.6-22.8-65.7-43.4c-20.4-20.9-42.3-41.5-73.7-38.5c-28.2,2.7-54.2,10.7-83.9,8.8
	C1335,323.5,1323.9,321.1,1313.4,317.3z"/>
<ellipse class="st1" cx="598" cy="789.6" rx="444.9" ry="27.5"/>
<g>
	<g>
		<rect x="509.1" y="77.8" class="st2" width="550.6" height="392.8"/>
		<path class="st3" d="M509.1,77.8v392.8h550.6V77.8H509.1z M1037.4,447H531.4V102h506.1V447z"/>
	</g>
	<path class="st4" d="M447,194.1c-11-1.3-19.1-6.2-27-13.9c2.3,21.2-4.4,43.1-4.4,43.1s1.1,69.5,29.3,61.1
		c28.2-8.4,10.1-53.6,10.1-53.6C448.4,220.5,447.1,204.8,447,194.1z"/>
	<path class="st5" d="M433,122.5c0,0,32.3-3.4,38.2,9.6c5.9,13.1-0.9,30.5,0.9,36.5c1.9,5.9,0.9,43.1-9.6,44.1
		c-10.6,0.9-43.8-23-44.8-51C416.8,133.7,424.9,122.9,433,122.5z"/>
	<path class="st6" d="M459.5,201.3c0.2,0,0.3,0,0.5-0.1c1.1,0,2,0.1,2.9,0.1c0.3-0.8,0.6-1.6,1-2.3c0.6-1.4,1.3-2.9,1.9-4.3
		c0.9-2.7,1.7-5.5,2.5-8.2c-1.5-0.2-3-0.4-4.5-0.8c-4.1,2-8.3,4-12.4,5.9c-0.8,0.4-1.6,0.7-2.4,1.1
		C452.6,195.4,456.1,198.3,459.5,201.3z"/>
	<path class="st5" d="M594.6,281.1c0,0,10.9-8.3,12.6-10.6c1.7-2.3,9.1-19.4,13.3-27.3c4.2-7.9,26.2-16.6,28-11
		c1.8,5.6-7.4,6.8-17.2,13.5c0,0,1,1.3,2,1.4c1,0.1,16.3,20.4,5.1,27.7c-11.1,7.3-25.7,7.8-35.3,16.3
		C603.1,291.1,595.3,286.7,594.6,281.1z"/>
	<path d="M432.4,754.8c0,0-3.9,23.3-1.5,29.7c1.9,4.9,71.9,5.7,75.9,1.4c3.9-4.3-2.6-11.8-6.1-13.5c-3.4-1.7-39.2-17.4-39.2-17.4
		L432.4,754.8z"/>
	<path d="M387.9,759.3H358c0,0-15.8,21.4-15.6,26.9c0.2,5.4,24.3,15.6,29.7,15.6c5.4,0,24.7-13,24.5-15.3
		C396.4,784,387.9,759.3,387.9,759.3z"/>
	<path class="st7" d="M473,154.9c0,0,11-4.8,8.5-17.3c-2.5-12.4-8.7-20.2-27-25.3c-18.3-5.1-35.1-3.4-37.4,11.8
		c0,0,8.6,26.6,29.9,25.4C468.3,148.2,474.8,148.2,473,154.9z"/>
	<path class="st7" d="M472.9,183.1c0,0-3.1-3.3-10.4-3.3c-12-0.1-18.7,11.5-19.8,11.5c-7.5,0.1-15.6-16.9-15.6-16.9
		c-7.5-5-5.1-11.9-1.1-13.7c4-1.8,6.1,4.3,6.8,7.7c0.6,3.4,2.9,5.6,4.9,2.7c2-2.9-2.5-0.5,0.5-16.3c3-15.9-8.1-22.2-8.1-22.2
		l-12.4-13.7c-28.8,12.7-10,58.8-2.1,69.2c15,19.8,37.9,38.5,51.6,29.8C475.6,212.4,472.9,183.1,472.9,183.1z M455.3,191.7
		c0,0,6.8,0.1,10.5-2C465.8,189.7,462.3,199.5,455.3,191.7z"/>
	<path class="st8" d="M476.5,389.9l-85-1.6c0,0-12.9,21.2-15.8,82.3c-2,41.9-3.7,53.4-7.9,108.8c-2.8,37.6-16.2,181.5-16.2,181.5
		h45.2c0,0,19.1-164.3,20.1-173.2c0.3-3.2,11.5-91.1,11.5-91.1s-1.8,79.8-1.8,88.9c0,9.2-2,170.8-2,170.8h47.6
		c0,0,5.3-137.4,5.8-168.9C478.7,536.5,483.1,406.4,476.5,389.9z"/>
	<path class="st9" d="M494.3,233.5l-16.7,63.4c0,0,30.8,57.3,46.3,58.1c15.5,0.8,89.4-64.5,89.4-64.5l-12.5-21.3
		c0,0-63.9,47.9-67.5,46.7C529.8,314.8,505.3,235.6,494.3,233.5z"/>
	<path class="st9" d="M415.9,221.5c0,0-39.4,5.4-49,10.5c0,0,26.8,43,18.5,70.6c0,0-7.5,94.9-6.8,115.6c0,0,49.6,18.4,105.9,0.7
		c0,0-0.9-104.6-0.9-120.8c0,0,4.8-43.5,10.7-64.8c0,0-20.9-4.4-42.3-8.4c0,0,1.7,2.2-7.3,13.7C439.3,245.8,417.5,235.6,415.9,221.5
		z"/>
	<path class="st10" d="M483.6,298.2c0,0,1.2-10.6,3.1-23.8c-7,7.4-8.1,39.6-9,44.9c-4.3,24.5-36.4,33.4-57.2,20.2
		c-19.4-12.3-21.7-43.1-26.3-63.2c-2.5-10.7-9.3-19-17.8-26.3c6.8,15,14,36.4,9.1,52.6c0,0-7.5,94.9-6.8,115.6
		c0,0,49.6,18.4,105.9,0.7C484.4,419,483.6,314.4,483.6,298.2z"/>
	<path class="st5" d="M380.2,451.3c2.9,3.6,12.7,15.3,11.1,20.5c-1.6,5.2-9.7-4.2-12.7-7.4c-3-3.2-3.4,7.6-2.6,13.3
		c0.8,5.8,12.5,15.3,11.3,19.3c-1.2,4-8-1.6-15.3-12.3c0,0,11.5,13.3,8.9,15.1c-2.7,1.9-9.2-4.9-14.3-12.7c0,0,11.1,12.5,8.4,14
		c-2.8,1.5-10.4-7.3-13.3-11.7c0,0,9.5,10.3,6.9,12c-2.1,1.4-9-4.8-11.6-13c-2.7-8.2,5.3-34.8,4.9-39.9c-0.4-5.1-2-11.4-2-11.4
		s16.4-3.7,16.4-3.7C375.9,433.4,375.8,445.9,380.2,451.3z"/>
	<path class="st9" d="M380.4,442.5l-22.7,6c0,0-26.4-86.7-22.4-107.4c4-20.7,13.7-98.3,31.6-109c0,0,22.8,6.6,24.2,34.6
		c0.8,15.9-5.7,36-5.7,36s-14.3,27.4-16.1,46.5C367.7,365.1,380.4,442.5,380.4,442.5z"/>
	<polygon class="st11" points="450.8,221.5 442.6,237 416.5,217.1 408.5,223.1 433.5,257.4 443.8,240.5 458,251.3 458.5,226.3 	"/>
	<path class="st7" d="M558.9,340.4c0,0,140.1-181.2,142.6-182C704,157.6,568.3,349,568.3,349s-2.6,2.6-7.5-1
		C558.4,346.3,557.3,342.7,558.9,340.4z"/>
	<path class="st5" d="M641.4,253.3c0,0-9.4,3.4-14.3,3.7c-4.7,0.3-3.6-4.4-0.4-6.1c3.3-1.8,15.1-7.3,18.2-5.8
		c3.1,1.5,1.9,7.1,0.1,7.7c0,0,4.4,2.3,1.5,6.9c0,0,2.3,5-0.6,7.2c0,0,1.4,5.8-2.4,7c-3.7,1.2-13.9,1.7-15.2-0.9
		c-1.6-3.2,3.4-4.7,13.4-5.7c0,0-10.7,1.9-12.6,1.7c-2.5-0.3-9.2-5.9,12.3-8.1c0,0-17.2,4.8-17.9,0.5
		C622.6,255.9,641.4,253.3,641.4,253.3z"/>
</g>
<path class="st1" d="M1571.7,956c-4.9-0.1-9.8-0.3-14.9-0.4V789.8h15.3v-106c-4.9,3.3-9,6.5-8.8,7.8c0.2,1.8,2.6,2,7,0.2l-4.2,7.8
	c-1.5,3.6-1.6,4.8-1.1,4.8h-13.3c-2.5-16.1-5.1-39.1-3.1-54.3c3.3-25.3,0.7-58.4-20.3-77.2c0,0-0.3,0.2-0.8,0.4
	c-1.1-1.2-2.8-3.4-4.6-6.8l6.2-24.7c1.6-1.7,3.1-3.7,4.4-6.4c2.2-4.6,1.8-9.5,0.8-14.3l7.3-29.2l-23.7-5.9l-1.1,5.4
	c-2-0.2-4.2-0.2-6.8,0c-1.2,0.1-2.3,0.1-3.4-0.2c-3.9-0.9-7.3-4-11.5-4.5c-11.5-1.5-19.1,8-28.9,10.9c-1.9-4.4-4.1-8.6-6.9-12.4
	c5.1-0.9,9.9-2.5,12.5-7.3c6.2-11.7-1.6-20.5-5.3-31.6c-4.2-12.7-0.1-32.2-9.9-42.3c-5-5.1-12.4-7.6-19.2-8.3
	c-6.9-0.8-12.9,0.4-19.6,1.6c-5.2,0.9-9.8,3.1-14.9,4.1c-3.5,0.6-4.7-0.6-5.4,3.1c-0.3,1.8,1,5.9,1.9,7.4c1.4,2.4,3.5,3.7,6,4.4
	c-1.9,8-2.4,18.5-4.2,22c-1.5,2.8-2.8,5.1-3.6,6.7c-0.7,1.5,1,2.3,3,3c1,0.4,1.8,1.2,2.2,2.2c1.4,4.3,5.2,15.1,9,16.6
	c1.9,0.7,6.5,1.1,12,0c-0.6,7.6-2.3,17.8-5,24.2c-0.2,0.4-1.1,2.1-2.4,4.8c-2,1.6-4.1,3.9-6.1,7.1c-16.4,25-46.3,58.6-47.9,59.6
	c-0.3,0.2-4,0.8-9.5,1.7c-4.7,0.4-10.3,1-16.2,1.5l15-59.9l-23.3-5.8l-14.4,67.7c-11.3,0.9-21.5,1.8-26.9,2.2
	c-0.5-8.5-0.6-16.8,0.3-23.5c3.3-25.3,0.7-58.4-20.3-77.2c0,0-0.3,0.2-0.8,0.4c-2.7-2.9-8.9-11.4-9.9-27.1c1.9,0.7,4.1,0.7,6.1-0.4
	c4.1-2.2,7.2-5.2,9.8-10.5c2.6-5.4,1.6-11.4,0.2-16.9c-0.6-2.5-2-5.1-2.2-7.6c-0.3-2.6,2.3-21.9-21.5-19.5c-1.2,0.1-2.3,0.1-3.4-0.2
	c-3.9-0.9-7.3-4-11.5-4.5c-13.2-1.7-21.2,11-33.4,11.7c-0.4,3.4,3.9,8.8,6,11.5c1.8,2.2,4.3,3.9,6.9,5.1c0.8,7,1.1,17.1-0.2,21
	c-1.7,5-4.7,8.4-4,10.2c0.7,1.7,4.9,0.4,6,2.5c1.2,2.1,7.3,16.1,10.9,18.1c1.3,0.8,5,0.2,9.6-1.9c0.2,6.6-0.3,13.4-2.2,19
	c-0.1,0.1-0.2,0.1-0.3,0.2c-0.9,0-1.7,0-2.5,0c0,0-0.6,1.2-1.4,3.1c-1.2,1.2-2.3,2.5-3.3,3.9c-6.9,9.9-38.8,60.5-43.6,65.5
	c-4.7,5-92.9,26.2-92.9,26.2c-6.8-4.1-16.8-10.1-18.4-9.1c-0.5,0.3-2,1.2-3.9,2.3l9.8-14.9c-0.3-7-6-3.4-6-3.4l-12.8,23.8
	c-6.4,4.1-12.8,8.6-12.5,10.2c0.2,1.8,2.6,2,7,0.2l-4.2,7.8c-1.5,3.6-1.6,4.8-1.1,4.8h-46.3v253.4c-217.9,1.3-386,9.9-386,20.3
	c0,11.3,199.5,20.5,445.6,20.5c72.7,0,141.3-0.8,201.9-2.2v61c-206.6,1.8-363,10.1-363,20.2c0,11.3,199.5,20.5,445.6,20.5
	c82.9,0,160.3-1,226.8-2.9V956z M1455.4,702.2c-0.2,0.7-0.3,1.4-0.5,2h-18.6C1444,703.8,1450.7,703.2,1455.4,702.2z M1377.9,588.7
	c3.7-1.2,8.1-4.1,12.9-7.8c-2.2,12.5-4.2,23.8-4.8,27.2c-6.6,1.6-13.6,3.4-20.8,5.3v-21.3h-10
	C1364.7,591.5,1372.9,590.4,1377.9,588.7z M1381.5,674.9c-6,1.5-11.5,2.9-16.3,4.1v-4.1H1381.5z M1328,599.2h31.1V615
	c-13.3,3.6-26.7,7.4-37.8,11.1L1328,599.2z M1346.5,843.9v10.3h7.1v-90.4c1.9,3.6,3.7,7.2,5.6,10.6V859c-19.7-0.8-41.1-1.6-63.8-2.2
	v-1.9c4.4,0.5,11,0.5,19,0.2c13.9-0.5,12.9-1.5,15.6-4.2c2.8-2.7,6.3-5.7,6.3-5.7s1.3,1.7,2.7,9.6l6.2-0.9
	C1345.2,853.9,1344.6,848,1346.5,843.9z M1344.3,745.7c0.7,1.4,1.5,2.8,2.2,4.3v17.7C1345.8,760.7,1345,753.3,1344.3,745.7z
	 M1358.9,680.5c-0.7-2-1.4-3.9-2.1-5.7h2.3v5.6C1359,680.5,1359,680.5,1358.9,680.5z M1318.5,826.4l10.2-2.6
	c-0.5,1.4-1.2,2.9-2.3,4.1c-2,2.3-7.4,5.2-11.2,7c0,0-0.1,0-0.1,0c0,0-0.3,0.2-0.7,0.4c-1.9,0.9-3.3,1.5-3.3,1.5
	c0.1,0,0.2,0.1,0.3,0.1c-4.2,2.3-11.2,6.3-16.1,9.5v-135h3.4C1306.3,764.5,1318.5,826.4,1318.5,826.4z M1295.4,704.3V686h0.2
	c0.7,5.8,1.4,12,2.3,18.3H1295.4z M1292.2,619.6c0.4-0.2,0.8-0.4,1.2-0.6c0,0-1.7-8.3-3.4-19.7h16.8l-7.6,35.7
	c-1.5,0.9-2.7,1.7-3.6,2.5c-2.5,2.3-3,11.5-2.3,24.6H1283C1289.9,662,1296.1,640.6,1292.2,619.6z M1189,599.2h4.7
	c-0.1,0.4-0.2,0.8-0.3,1.3h-18.6C1180.1,600.2,1184.9,599.8,1189,599.2z M1050.3,597.3l2.3-3.5c2-0.1,5.1-1.7,8.1-3.5
	c-0.8,0.5-1.2,1-1.3,1.3l0,0c-2.4,2.2-4.1,4.3-2.9,5.4c1.2,1,4.1-0.1,7.1-1.9c-0.1,0.3-0.1,0.6,0.1,0.8c0.2,0.2,0.6,0.3,1,0.3
	c-0.7,1-1.1,1.8-0.8,2.2c0.5,0.7,2.1,0.7,4.4-0.1c0,0.2-0.1,0.4,0.1,0.5c2,1.6,10.8-2.8,14.6-4.8c0,0,0,0,0,0
	c-3,1.7-8.8,5.2-8.1,6.1c0.2,0.3,0.8,0.5,1.6,0.5c2.2,0,6.4-1.3,11.3-3.7c1.6,0.6,3.4,0.9,5.3,1l0.5,2.6c0,0,1.7-0.3,4.6-0.8
	l0.2,0.8h-51.2C1047.9,600.5,1050.3,597.3,1050.3,597.3z M1159.7,624.3c-22.3,9-43,18-48.5,22.1c-2.4,1.8-3.2,9.1-2.9,19.7
	c-8.2,45.3-9.8,163.4-9.8,163.4l4.4,0.4c-10.3,3.6-28.3,10.1-37.4,13.7c-5.9,2.4-7.8,6.3-6.6,10.1c-17.6,0-34.9,0.1-51.9,0.2V607.6
	h152.8V624.3z M1165.8,607.6h25.9c-0.5,1.9-0.8,3.3-1.1,4.4c-7.9,3-16.3,6.4-24.8,9.8V607.6z M1200.3,854.7
	c-11.2-0.2-22.5-0.3-34-0.4v-3.9c1.2-0.8,2-1.6,2.2-2.5c0.7-2.9-0.9-11.5-2.2-18V826l1.1-0.1c0,0-0.5-9-1.1-22.7V686h34V854.7z
	 M1262.3,855.9c-18-0.4-36.6-0.8-55.9-1.1V686h82v18.3h-26.1V855.9z M1288.4,711.4v145.2c-6.6-0.2-13.2-0.4-20-0.5V711.4H1288.4z
	 M1326.9,947.4c-3.6,1.4-5.6,3.5-6.5,5.8c-17.6,0-35,0.1-52,0.3v-61.1c33.6-0.8,64.7-1.8,92.6-3c-0.8,25.3-1.1,43.9-1.1,43.9
	l4.4,0.4C1354,937.3,1336,943.8,1326.9,947.4z M1365.2,807.9V786c0.6,1.1,1.2,2.2,1.8,3.3C1366.3,795.1,1365.8,801.4,1365.2,807.9z
	 M1371.3,711.4h81.8c-0.5,1.9-0.8,3.3-1.1,4.4c-22.5,8.8-50.5,19.9-67,27.6C1380.4,732.7,1375.7,721.8,1371.3,711.4z M1461.8,953.9
	c-10.9-0.1-22-0.3-33.2-0.4c0.7-0.6,1.3-1.2,1.4-1.8c0.7-2.9-0.9-11.5-2.2-18v-3.9l1.1-0.1c0,0-0.5-9-1.1-22.7v-21.1
	c12.7-0.9,24.2-1.7,34-2.7V953.9z M1461.8,865.3c-9.9-0.9-21.3-1.8-34-2.7v-72.8h34V865.3z M1476.4,548.4
	c1.2,2.1,7.3,16.1,10.9,18.1c1.3,0.8,5,0.2,9.6-1.9c0.2,6.6-0.3,13.4-2.2,19c-0.1,0.1-0.2,0.1-0.3,0.2c-0.9,0-1.7,0-2.5,0
	c0,0-0.6,1.2-1.4,3.1c-1.2,1.2-2.3,2.5-3.3,3.9c-2,2.9-6.3,9.4-11.3,17.2c-2.4-14.2-6.3-41.5-4.1-58.2c0.1-0.9,0.2-2,0.3-2.9
	C1473.6,547.1,1475.6,547,1476.4,548.4z M1474.5,514.8c0.8,7,1.1,17.1-0.2,21c-0.5,1.3-1,2.6-1.6,3.7c0.4-8.6,0-17.8-1.8-26.8
	C1472.1,513.5,1473.3,514.2,1474.5,514.8z M1518.8,954.8c-16.5-0.3-33.5-0.6-51-0.8v-71.4c24.5-2.5,38.2-5.3,38.2-8.3
	s-13.7-5.8-38.2-8.3v-76.1h9.8v64.4h7.1v-64.4h34.1V954.8z M1568.3,701.1l0.7-1.1l-0.9,4.4h-3
	C1565.9,704.2,1568.3,701.1,1568.3,701.1z M1549.9,955.5c-8.2-0.2-16.5-0.4-25-0.6V789.8h25V955.5z M1544.5,765.7
	c6.9,0,13.1-21.3,9.2-42.4c0.4-0.2,0.8-0.4,1.2-0.6c0,0-0.9-4.4-2.1-11.3h13.7l-11.6,54.3H1544.5z"/>
<path class="st12" d="M1159.2,854.2c-0.7,0-1.3,0-2,0c0.7-0.2,1.4-0.4,2-0.6V854.2z"/>
<path class="st13" d="M1051.5,590.5c0.1,0,0.3-0.1,0.4-0.1c0,0-0.1,0.1-0.1,0.1c-0.2,0.1-0.4,0.2-0.5,0.3
	C1051.3,590.6,1051.4,590.5,1051.5,590.5z"/>
<path class="st13" d="M1043.3,589.4c-0.1,0.1-0.2,0.1-0.3,0.2c0.2-0.1,0.3-0.2,0.5-0.3C1043.4,589.3,1043.3,589.4,1043.3,589.4z"/>
<path class="st14" d="M812,586l0.2,16.9c0,0,71.7,4.5,91.9-2.4c20.1-6.9,62.6-62.9,66.2-72.3c4.4-11.3-12.3-38.7-28.7-13.7
	c-16.4,25-46.3,58.6-47.9,59.6C892,575.2,812,586,812,586z"/>
<path class="st15" d="M827.8,593.4c0,0-7.2-2.4-8.7-2.6c-1.5-0.2-18.4-9-20.9-8.1c-2.5,1-25.6,9.9-25.6,12.2c0,2.3,5.9,1.6,18.5-4.4
	c0,0-16.4,6.4-14.3,8.7c2.1,2.3,17-5.3,17-5.3s-14.9,6.2-12.4,8.2c2.5,2.1,16.3-5.8,16.3-5.8s-10.7,5.8-9.9,7.1
	c0.9,1.3,6.9,0,14.3-3.9c0,0,1.2-0.4,4,1.4s23.2,1.4,23.2,1.4L827.8,593.4z"/>
<path d="M762.5,599.2l24.2-41.1c0,0,5.8-3.4,5.8,3.6l-28,39.1C764.6,600.8,758.1,608.8,762.5,599.2z"/>
<path class="st16" d="M820.2,587.9c0,0-8,0-9.6-0.2c-1.7-0.2-21.8-15.1-24.4-13.7c-2.5,1.4-26.5,14-26.2,17c0.3,3.1,6.7,2,19.6-6.4
	c0,0-16.9,9.1-14.3,12.1c2.7,3,17.8-7.6,17.8-7.6s-15.3,8.7-12.3,11.4c3,2.7,16.9-8.2,16.9-8.2s-10.8,8.1-9.7,9.8
	c1.1,1.7,7.6-0.2,15-5.6c0,0,3,0.6,6,3.4c6.1,5.8,24.2,2.1,24.2,2.1L820.2,587.9z"/>
<path class="st15" d="M955.2,470.6c2.5-0.5,14.5-25.9,19.7-30.8c2.5,17.3,12.9,58.5,12.9,58.5c-12.7,13.6-38.1,5.3-38.1,5.3
	C954,494.5,956,476.5,955.2,470.6z"/>
<path class="st16" d="M967.1,408.8c0,0-23.2,5.2-27.7,12c-4.4,6.8-4.4,24.4-6.9,29c-1.5,2.8-2.8,5.1-3.6,6.7c-0.7,1.5,1,2.3,3,3
	c1,0.4,1.8,1.2,2.2,2.2c1.4,4.3,5.2,15.1,9,16.6c4.8,1.9,28.4,1.2,35.5-19.4C985.8,438.4,981.9,404.4,967.1,408.8z"/>
<path class="st16" d="M861.5,830.2l16.6-2.7c0,0,0.8,15.7,2.2,19.4c0,0-18.6,8.9-37.6,1.9c0,0,12.1-5.2,15.3-8.9
	C861.2,836,861.5,830.2,861.5,830.2z"/>
<path d="M878.9,839.4c0,0-12.6,8.8-32.2,7.4c0,0-23.8,12.7-25.3,15.9c-2.1,4.5,8.3,4.7,24.5,4.2c13.9-0.5,12.9-1.5,15.6-4.2
	c2.8-2.7,6.3-5.7,6.3-5.7s1.3,1.7,2.7,9.6l6.2-0.9c0,0-0.7-7.6,2.3-11.7C881.1,851.1,883.5,844.5,878.9,839.4z"/>
<path class="st16" d="M928.4,826.1l12.5-3.4c0,0,7.3,12.3,9.5,15.5c0,0-16.2,12.8-36.3,10.1c0,0,10.7-7.8,13-12.1
	C929.3,831.9,928.4,826.1,928.4,826.1z"/>
<path d="M949,835.3c0,0-11.7,9.9-31.3,10.3c0,0-22.5,14.9-23.7,18.2c-1.7,4.6,8.7,4,24.8,1.9c13.8-1.7,12.7-2.7,15.2-5.6
	c2.5-3,5.7-6.3,5.7-6.3s1.4,1.6,3.6,9.3l6.1-1.5c0,0-1.4-7.5,1.2-11.8C952.3,846.7,954.1,839.9,949,835.3z"/>
<path class="st17" d="M986.1,597.4l-32.7,23.1c0,0-106,20.4-119.5,30.5c-13.5,10.1,85.6,189,85.6,189l30.8-10.2
	c0,0-74-158.4-67.3-165.1c6.7-6.7,115.8-16.7,122.6-18.7C1012.5,643.9,1002.9,619.7,986.1,597.4z"/>
<path class="st18" d="M986.1,597.4l-32.7,23.1c0,0-106,20.4-119.5,30.5c-13.5,10.1,85.6,189,85.6,189l30.8-10.2
	c0,0-74-158.4-67.3-165.1c6.7-6.7,115.8-16.7,122.6-18.7C1012.5,643.9,1002.9,619.7,986.1,597.4z"/>
<path class="st17" d="M996.2,607.9l-42.7,3.6c0,0-112.4,24.8-126.2,37.7c-12.3,11.5,22.8,189,22.8,189l33.5-8.5
	c0,0-18.9-158.5-10.7-163.3c7.1-4.1,122-4.1,129.2-4.1C1012.4,662.3,1019.7,631.7,996.2,607.9z"/>
<g>
	<path class="st14" d="M984.1,489.6c0,0-17.5,8-33.9,12.9c0,0-19.9,39.3-21.3,50.3c-1.3,11-11.6,68.3-11.6,68.3s63.3,22,91.8,8
		c0,0-8.9-44.2-5.8-67.5C1006.5,538.3,1003.8,506.9,984.1,489.6z"/>
	<path class="st19" d="M976.5,556.6c-0.1,19.7-12.7,29.3-25.8,42.1c-7.7,7.5-17.5,15.1-21.9,26.1c-7-2.1-11.4-3.6-11.4-3.6
		s6.2-29.5,9.2-51c13.1-5.8,20-18.3,24.7-31.6c2.7-7.7,4.2-12.7,9-18.4c14.5,0.4,15.3,17.3,16.2,33.1
		C976.5,554.3,976.5,555.5,976.5,556.6z"/>
</g>
<g>
	<polygon class="st3" points="1073.2,503.5 1030.4,674.5 1012.7,670 1049.5,497.6 	"/>
	<g>
		<rect x="878" y="679.4" class="st20" width="7.1" height="186.6"/>
		<rect x="1009.2" y="679.4" class="st20" width="7.1" height="186.6"/>
	</g>
	<rect x="859" y="662.3" class="st21" width="176.2" height="24.4"/>
</g>
<path class="st7" d="M945.9,428.6c6,0.2,11,2.2,14.2,8c1.5,2.7,2.5,6.3,1.9,9.5c-0.3,1.7-4.7,8.8-0.2,9.4c2.1,0.3,3.6-4.1,4.7-5.3
	c2.8-3.3,6.1-2.3,8.2,1.3c2.5,4.4-0.1,7.5-3.3,10.4c-4.5,4.1-2.1,5.2-1,10.9c1.4,7.1-2.1,14.3,3.1,20c3.8,4.1,8.1,5.5,13.7,4.7
	c6.2-0.9,12.9-2,16-7.9c6.2-11.7-1.6-20.5-5.3-31.6c-4.2-12.7-0.1-32.2-9.9-42.3c-5-5.1-12.4-7.6-19.2-8.3
	c-6.9-0.8-12.9,0.4-19.6,1.6c-5.2,0.9-9.8,3.1-14.9,4.1c-3.5,0.6-4.7-0.6-5.4,3.1c-0.3,1.8,1,5.9,1.9,7.4c2.9,5,8.9,5.2,14,5.2
	C945.2,428.6,945.6,428.6,945.9,428.6z"/>
<g>
	<rect x="890.7" y="603.9" class="st22" width="6.1" height="269.4"/>
	<rect x="691.2" y="603.9" class="st22" width="6.1" height="269.4"/>
	<rect x="691.2" y="603.9" class="st22" width="205.6" height="7.1"/>
</g>
<path class="st14" d="M814.3,581.8l0.2,22.1c0,0,74.1,3.5,94.9-3.4c20.8-6.9,64.7-62.9,68.4-72.3c4.5-11.3-12.7-38.7-29.7-13.7
	c-17,25-47.8,58.6-49.5,59.6C897,575.2,814.3,581.8,814.3,581.8z"/>
<path d="M1189.7,940.2c0,0-24.4,12-37.5,17.4c-10.9,4.5-8.6,14.4,3.7,18.1c12.3,3.7,22.5,1.3,25.3-2.7c2.8-3.9,9.7-2.5,12.3-1.2
	c2.6,1.3,23.2-3.5,24.4-8.3c1.2-4.8-4-25.8-4-25.8L1189.7,940.2z"/>
<path class="st14" d="M1316.9,713.6l-41.5,0.5c0,0-101.4,37.8-114.7,47.8c-13.2,9.9,21.8,183.1,21.8,183.1l34.4-3.6
	c0,0-8.1-155-1.5-161.6c6.6-6.6,114-16.4,120.8-18.5C1342.8,759.4,1333.4,735.7,1316.9,713.6z"/>
<path class="st19" d="M1316.9,713.6l-41.5,0.5c0,0-101.4,37.8-114.7,47.8c-13.2,9.9,21.8,183.1,21.8,183.1l34.4-3.6
	c0,0-8.1-155-1.5-161.6c6.6-6.6,114-16.4,120.8-18.5C1342.8,759.4,1333.4,735.7,1316.9,713.6z"/>
<g>
	<polygon class="st3" points="1401,621.2 1358.9,789.6 1341.5,785.2 1377.7,615.4 	"/>
	<g>
		<rect x="1208.8" y="794.5" class="st20" width="7" height="183.7"/>
		<rect x="1338" y="794.5" class="st20" width="7" height="183.7"/>
	</g>
	<rect x="1190.1" y="777.5" class="st21" width="173.5" height="24"/>
</g>
<path class="st15" d="M1305.8,547.2l-23.8,5.1c0,0,6.8,29.3,0,45.4c0,0,13,5.1,34.8-11.5C1316.9,586.2,1303.4,574.9,1305.8,547.2z"
	/>
<path class="st16" d="M1309.7,513.3c0,0-26.5-10-33.6-6.3c-7.1,3.6-15.7,9-14.4,14.4c1.3,5.4,2.3,21.2,0.6,26.2
	c-1.7,5-4.7,8.4-4,10.2c0.7,1.7,4.9,0.4,6,2.5c1.2,2.1,7.3,16.1,10.9,18.1s24.1-5.2,33.6-27.5
	C1318.5,528.5,1315.6,517.1,1309.7,513.3z"/>
<path d="M1160,942.8c0,0-31.9,11.1-45,16.4c-10.9,4.4-8.8,14.3,3.6,18.1c12.3,3.8,22.5,1.5,25.4-2.4c2.8-3.9,9.7-2.4,12.4-1.1
	c2.6,1.3,23.3-3.3,24.5-8s-1.7-18.7-1.7-18.7L1160,942.8z"/>
<path class="st7" d="M1321.8,530.2c-0.6-2.5-2-5.1-2.2-7.6c-0.3-2.6,2.3-21.9-21.5-19.5c-1.2,0.1-2.3,0.1-3.4-0.2
	c-3.9-0.9-7.3-4-11.5-4.5c-13.2-1.7-21.2,11-33.4,11.7c-0.4,3.4,3.9,8.8,6,11.5c2.6,3.2,6.7,5.4,10.6,6.6c4.2,1.4,9.9,1.5,14.5,1.1
	c2.4-0.2,6.8-3,8.9-1c2.2,2.1,0.5,10.1,0.7,12.9c0.1,2-0.2,3.7,2.1,4.6c0.2,0.1,0.4,0.1,0.6,0.1c0.2,0,0.4,0,0.6-0.1
	c2.4-0.7,1.9-7.5,2.5-9.5c2.2-7,10.6-6.1,11.6,0.7c0.9,5.8-4.7,9.8-6.3,10.9c-0.2,1-0.3,1.9-0.4,2.8c-0.6,5.7,5.6,9.7,10.7,6.9
	c4.1-2.2,7.2-5.2,9.8-10.5C1324.2,541.7,1323.2,535.7,1321.8,530.2z"/>
<path class="st14" d="M1328.3,707.5l-46.3,9.2c0,0-105.2,38-118.5,47.9c-13.2,9.9-15.6,180.4-15.6,180.4l34.5,3.3
	c0,0,14.8-162.1,22.9-166.8c7-4.1,120.2-4.1,127.2-4.1C1342.8,777.5,1351.5,730.9,1328.3,707.5z"/>
<path class="st9" d="M1138.8,694.3l4.2,21.8c0,0,89.9-15.5,99.6-22.7s67.7-70,59.2-87.5c-8.5-17.5-19.6-13.2-26.5-3.3
	c-6.9,9.9-38.8,60.5-43.6,65.5C1227,673.1,1138.8,694.3,1138.8,694.3z"/>
<g>
	<path class="st9" d="M1316.4,584.6c0,0-23.2,11.8-36.4,11c0,0-21.3,44.7-22.7,56.6c-1.4,12-17.6,77.1-17.6,77.1
		s70.6,24.4,103.3,5.1c0,0-9.7-47.4-6.3-72.7C1340.1,636.4,1337.4,603.4,1316.4,584.6z"/>
	<path class="st10" d="M1306.5,667.6c5.1-11.8,25.3-30.9,15.1-44.2c-8.1-10.7-14-11.4-22.9-1.2c-8.4,9.6-16,19.8-25.6,28.3
		c-5,4.4-10.6,8-16.1,11.8c0,24.6-17.3,67.2-17.3,67.2s36.5,11.7,56.5,12C1285.5,718,1295.7,692.5,1306.5,667.6z"/>
</g>
<path class="st15" d="M1164.2,699.8c0,0-7.2,3.4-8.7,3.2c-1.5-0.2-18.4-9-20.9-8.1c-2.5,1-25.6,9.9-25.6,12.2
	c0,2.3,5.9,1.6,18.5-4.4c0,0-16.4,6.4-14.3,8.7c2.1,2.3,17-5.3,17-5.3s-14.9,6.2-12.4,8.2c2.5,2.1,16.3-5.8,16.3-5.8
	s-10.7,5.8-9.9,7.1c0.9,1.3,6.9,0,14.3-3.9c0,0,1.2-0.4,4,1.4c2.8,1.8,23.2-4.5,23.2-4.5L1164.2,699.8z"/>
<path d="M1097.7,711.3l22.5-42.1c0,0,5.6-3.6,6,3.4l-26.3,40.2C1099.9,712.8,1093.7,721.1,1097.7,711.3z"/>
<path class="st16" d="M1154.9,697.7c0,0-7.9,0.4-9.6,0.2c-1.7-0.1-22.4-14.2-24.9-12.7c-2.5,1.5-25.9,15-25.4,18.1
	c0.4,3.1,6.8,1.8,19.3-7.2c0,0-16.5,9.8-13.7,12.7c2.8,2.9,17.4-8.3,17.4-8.3s-14.9,9.3-11.8,11.9c3.2,2.6,16.6-8.8,16.6-8.8
	s-10.5,8.6-9.3,10.2c1.2,1.7,7.6-0.5,14.8-6.2c0,0,3.1,0.5,6.1,3.1c6.3,5.5,24.3,1.1,24.3,1.1L1154.9,697.7z"/>
<g>
	<rect x="1249.8" y="716.1" class="st22" width="6.1" height="269.4"/>
	<rect x="1050.4" y="716.1" class="st22" width="6.1" height="269.4"/>
	<rect x="1050.4" y="716.1" class="st22" width="205.6" height="7.1"/>
</g>
<path class="st9" d="M1141.7,694.4l6.2,22.2c0,0,91.5,2.6,101.7-4.6c10.2-7.2,80.2-78.3,71.3-95.8c-8.9-17.5-20.6-13.2-27.8-3.3
	c-6.7,9.2-50.9,60.3-56.1,65.6C1232,683.5,1141.7,694.4,1141.7,694.4z"/>
<polygon class="st23" points="479.6,23.6 463.2,23.6 463.2,7.2 453.9,7.2 453.9,23.6 437.5,23.6 437.5,32.9 453.9,32.9 453.9,49.3 
	463.2,49.3 463.2,32.9 479.6,32.9 "/>
<polygon class="st23" points="1155.1,108.9 1138.7,108.9 1138.7,92.5 1129.4,92.5 1129.4,108.9 1113,108.9 1113,118.2 1129.4,118.2 
	1129.4,134.6 1138.7,134.6 1138.7,118.2 1155.1,118.2 "/>
<polygon class="st23" points="1506.3,252.8 1489.9,252.8 1489.9,236.3 1480.6,236.3 1480.6,252.8 1464.2,252.8 1464.2,262 
	1480.6,262 1480.6,278.4 1489.9,278.4 1489.9,262 1506.3,262 "/>
<polygon class="st6" points="656.6,925.7 640.1,925.7 640.1,909.3 630.9,909.3 630.9,925.7 614.5,925.7 614.5,935 630.9,935 
	630.9,951.4 640.1,951.4 640.1,935 656.6,935 "/>
<polygon class="st6" points="301.1,551.1 284.7,551.1 284.7,534.6 275.4,534.6 275.4,551.1 259,551.1 259,560.3 275.4,560.3 
	275.4,576.7 284.7,576.7 284.7,560.3 301.1,560.3 "/>
<g>
	<path class="st23" d="M329.9,144.6c0,12.8-16.1,16.6-16.1,21.6v2h-16.1v-4.7c0-6.9,12.3-10.8,12.3-18.5c0-3.5-2.3-6.6-6.2-6.6
		c-5.1,0-6.1,4-6.1,7.9c0,0.8,0,1.7,0.1,2.5h-17.3c-0.1-1.2-0.3-2.4-0.3-3.6c0-12.3,10.9-19.9,25.7-19.9
		C320.2,125.4,329.9,133,329.9,144.6z M315.2,191.4h-18.7V174h18.7V191.4z"/>
</g>
<g>
	<path class="st23" d="M1291.5,115.6v50.8l-5.5,35.4h-18.3l-5.5-35.4v-50.8H1291.5z M1290.3,224.1c0,8.3-5.7,14.1-14.1,14.1
		c-8.2,0-13.9-5.7-13.9-14.1c0-8.2,5.7-13.9,13.9-13.9C1284.5,210.2,1290.3,215.9,1290.3,224.1z"/>
</g>
<g>
	<path class="st6" d="M1120.9,365.8h-23v-21.6h23V365.8z"/>
	<path class="st6" d="M1157.1,365.8h-23v-21.6h23V365.8z"/>
	<path class="st6" d="M1193.2,365.8h-23v-21.6h23V365.8z"/>
</g>
<g>
	<path class="st6" d="M644.6,558h-23v-21.6h23V558z"/>
	<path class="st6" d="M680.8,558h-23v-21.6h23V558z"/>
	<path class="st6" d="M716.9,558h-23v-21.6h23V558z"/>
</g>
<g>
	<g>
		<g>
			<path class="st14" d="M752.2,342.3h181c5,0,9-4.1,9-9V216.7c0-5-4.1-9-9-9h-181c-5,0-9,4.1-9,9v39.4l-56.8,4.3l56.8,42.8v30
				C743.2,338.2,747.2,342.3,752.2,342.3z"/>
		</g>
	</g>
	<g>
		<g>
			<path class="st6" d="M871.2,256.9c0,15.1-19,19.5-19,25.4v2.3h-19v-5.5c0-8.1,14.4-12.8,14.4-21.7c0-4.1-2.7-7.8-7.3-7.8
				c-6,0-7.2,4.7-7.2,9.3c0,1,0,2,0.1,3h-20.4c-0.1-1.4-0.3-2.8-0.3-4.2c0-14.4,12.9-23.4,30.3-23.4
				C859.8,234.3,871.2,243.2,871.2,256.9z M853.9,311.9h-22v-20.5h22V311.9z"/>
		</g>
	</g>
</g>
</svg>
