<?xml version="1.0" encoding="utf-8"?>
<!-- Generator: Adobe Illustrator 24.0.1, SVG Export Plug-In . SVG Version: 6.00 Build 0)  -->
<svg version="1.1" xmlns="http://www.w3.org/2000/svg" xmlns:xlink="http://www.w3.org/1999/xlink" x="0px" y="0px"
	 viewBox="0 0 195.5 47" style="enable-background:new 0 0 195.5 47;" xml:space="preserve">
<style type="text/css">
	.st0{fill:#CEA146;}
	.st1{fill:#F8C34F;}
	.st2{fill:#1370B6;}
	.st3{fill:#136191;}
	.st4{fill:#E4E8EA;}
	.st5{fill:#F9FBFC;}
	.st6{fill:#CED5D8;}
	.st7{fill:#EEE2D2;}
	.st8{fill:#F49A9A;}
	.st9{fill:#FBD15B;}
	.st10{fill:#E2B137;}
	.st11{fill:#3B4D57;}
	.st12{fill:#FFC8AF;}
	.st13{fill:#AD5C49;}
</style>
<g id="BACKGROUND">
</g>
<g id="OBJECTS">
	<path class="st0" d="M42.2,14.6v18c0,0.7-0.2,1.4-0.4,2.1c-0.4,1-1.2,1.8-2.1,2.4L32,41.4l-8,4.6c-0.6,0.3-1.2,0.6-1.9,0.6
		c-1,0.1-2.1,0-3.1-0.6c-0.1,0-0.1-0.1-0.2-0.1l-3.8-2.2L3.3,37c-1-0.6-1.7-1.4-2.1-2.4c-0.3-0.6-0.4-1.3-0.4-2.1v-18
		c0-1.8,1-3.5,2.6-4.4l12.6-7.3l2.2-1.3l0.8-0.5c1-0.6,2.1-0.8,3.2-0.6c0.6,0.1,1.3,0.3,1.9,0.6l8,4.6l7.6,4.4
		C41.3,11.1,42.2,12.7,42.2,14.6z"/>
	<path class="st1" d="M21.5,44.7c-0.5,0-0.9-0.1-1.3-0.4l-16-9.2c-0.8-0.5-1.3-1.3-1.3-2.3V14.4c0-0.9,0.5-1.8,1.3-2.3l16-9.2
		c0.4-0.2,0.9-0.4,1.3-0.4c0.5,0,0.9,0.1,1.3,0.4l16,9.2c0.8,0.5,1.3,1.3,1.3,2.3v18.5c0,0.9-0.5,1.8-1.3,2.3l-16,9.2
		C22.4,44.5,22,44.7,21.5,44.7z"/>
	<path class="st2" d="M38.1,5.7c0,8.7,0,18.7,0,27.4c-5.5-1.9-11.2-1.9-16.6,0c0-0.8,0-1.5,0-2.3c5-1.6,10.1-1.6,15.1,0
		c0-8.4,0-16.7,0-25.1H38.1z"/>
	<path class="st3" d="M21.5,30.8c0,0.8,0,1.5,0,2.3c-5.5-1.9-11.2-1.9-16.6,0c0-8.8,0-18.7,0-27.4h1.6c0,8.4,0,16.7,0,25.1
		C11.4,29.3,16.5,29.3,21.5,30.8L21.5,30.8z"/>
	<path class="st4" d="M21.5,30.8c0-8.8,0-17.6,0-26.4c5-1.5,10.1-1.5,15.1,0c0,0.4,0,0.9,0,1.4c0,8.4,0,16.7,0,25.1
		C31.6,29.3,26.5,29.3,21.5,30.8L21.5,30.8z"/>
	<path class="st5" d="M21.5,4.4c0,8.8,0,17.6,0,26.4c-5-1.6-10.1-1.6-15.1,0c0-8.4,0-16.7,0-25.1c0-0.4,0-0.9,0-1.4
		C11.4,2.8,16.5,2.8,21.5,4.4z"/>
	<path class="st4" d="M6.4,28.4c0,0.8,0,1.6,0,2.4c5-1.6,10.1-1.6,15.1,0c0-0.8,0-1.6,0-2.4C16.5,26.9,11.4,26.9,6.4,28.4z"/>
	<path class="st6" d="M36.6,28.4c0,0.8,0,1.6,0,2.4c-5-1.6-10.1-1.6-15.1,0c0-0.8,0-1.6,0-2.4C26.5,26.9,31.6,26.9,36.6,28.4z"/>
	<path class="st2" d="M19.3,6.2c-3.5-0.8-7.1-0.8-10.7,0L8.6,5.8c3.6-0.8,7.2-0.8,10.8,0L19.3,6.2z"/>
	<path class="st2" d="M19.3,9c-3.5-0.8-7.1-0.8-10.7,0L8.6,8.6c3.6-0.8,7.2-0.8,10.8,0L19.3,9z"/>
	<path class="st2" d="M19.3,11.7c-3.5-0.8-7.1-0.8-10.7,0l-0.1-0.3c3.6-0.8,7.2-0.8,10.8,0L19.3,11.7z"/>
	<path class="st2" d="M19.3,14.5c-3.5-0.8-7.1-0.8-10.7,0l-0.1-0.3c3.6-0.8,7.2-0.8,10.8,0L19.3,14.5z"/>
	<path class="st2" d="M19.3,17.3c-3.5-0.8-7.1-0.8-10.7,0L8.6,17c3.6-0.8,7.2-0.8,10.8,0L19.3,17.3z"/>
	<path class="st2" d="M19.3,20.1c-3.5-0.8-7.1-0.8-10.7,0l-0.1-0.3c3.6-0.8,7.2-0.8,10.8,0L19.3,20.1z"/>
	<path class="st2" d="M19.3,22.9c-3.5-0.8-7.1-0.8-10.7,0l-0.1-0.3c3.6-0.8,7.2-0.8,10.8,0L19.3,22.9z"/>
	<path class="st2" d="M19.3,25.6c-3.5-0.8-7.1-0.8-10.7,0l-0.1-0.3c3.6-0.8,7.2-0.8,10.8,0L19.3,25.6z"/>
	<path class="st2" d="M34.4,6.2c-3.5-0.8-7.1-0.8-10.7,0l-0.1-0.3c3.6-0.8,7.2-0.8,10.8,0L34.4,6.2z"/>
	<path class="st2" d="M34.4,9c-3.5-0.8-7.1-0.8-10.7,0l-0.1-0.3c3.6-0.8,7.2-0.8,10.8,0L34.4,9z"/>
	<path class="st2" d="M34.4,11.7c-3.5-0.8-7.1-0.8-10.7,0l-0.1-0.3c3.6-0.8,7.2-0.8,10.8,0L34.4,11.7z"/>
	<path class="st2" d="M34.4,14.5c-3.5-0.8-7.1-0.8-10.7,0l-0.1-0.3c3.6-0.8,7.2-0.8,10.8,0L34.4,14.5z"/>
	<path class="st2" d="M34.4,17.3c-3.5-0.8-7.1-0.8-10.7,0L23.6,17c3.6-0.8,7.2-0.8,10.8,0L34.4,17.3z"/>
	<path class="st2" d="M34.4,20.1c-3.5-0.8-7.1-0.8-10.7,0l-0.1-0.3c3.6-0.8,7.2-0.8,10.8,0L34.4,20.1z"/>
	<path class="st2" d="M34.4,22.9c-3.5-0.8-7.1-0.8-10.7,0l-0.1-0.3c3.6-0.8,7.2-0.8,10.8,0L34.4,22.9z"/>
	<path class="st2" d="M34.4,25.6c-3.5-0.8-7.1-0.8-10.7,0l-0.1-0.3c3.6-0.8,7.2-0.8,10.8,0L34.4,25.6z"/>
	<path class="st7" d="M34.3,35.6c0-0.7-0.6-1.3-1.3-1.3h-1.3l-3.3,0H13.2l-3.1,1.1v1l3.1,1.1h15.2h3.3H33c0.7,0,1.3-0.6,1.3-1.3
		L34.3,35.6z"/>
	<path class="st8" d="M33,34.3c0.7,0,1.3,0.6,1.3,1.3l0,0.6c0,0.7-0.6,1.3-1.3,1.3h-1.3l0-0.5v-0.8v-0.8l0-0.8l0-0.4H33z"/>
	
		<rect x="29.8" y="32.9" transform="matrix(1.207709e-03 -1 1 1.207709e-03 -4.4962 64.5345)" class="st9" width="0.4" height="3.3"/>
	<polygon class="st9" points="31.7,35.5 31.7,36.3 28.4,36.3 28.4,35.9 28.4,35.5 	"/>
	<polygon class="st9" points="31.7,37 31.7,37.5 28.4,37.5 28.4,37 	"/>
	<rect x="28.4" y="36.3" class="st10" width="3.3" height="0.8"/>
	
		<rect x="29.7" y="33.5" transform="matrix(5.248517e-03 -1 1 5.248517e-03 -5.2149 64.9893)" class="st10" width="0.8" height="3.3"/>
	<polygon class="st2" points="28.4,34.3 28.4,34.7 28.4,35.5 28.4,35.9 13.2,35.9 13.2,34.3 	"/>
	<polygon class="st3" points="28.4,35.9 28.4,36.3 28.4,37 28.4,37.5 13.2,37.5 13.2,35.9 	"/>
	<polygon class="st11" points="8.7,35.9 10.1,35.4 10.1,36.4 	"/>
	<polygon class="st12" points="13.2,34.3 13.2,35.9 13.2,37.5 10.1,36.4 10.1,35.4 	"/>
	<g>
		<path class="st13" d="M48.4,34.2c-0.1-0.1-0.2-0.2-0.2-0.4V13.9c0-0.2,0.1-0.3,0.2-0.4c0.1-0.1,0.2-0.2,0.4-0.2h13.5
			c0.2,0,0.3,0.1,0.4,0.2c0.1,0.1,0.2,0.2,0.2,0.4v2.5c0,0.1,0,0.3-0.2,0.4c-0.1,0.1-0.2,0.2-0.4,0.2h-9.8c-0.1,0-0.3,0.1-0.4,0.2
			c-0.1,0.1-0.2,0.2-0.2,0.4v4.4V22c0,0.2,0,0.3,0.1,0.4c0.1,0.1,0.3,0.1,0.6,0.1h7.6c0.1,0,0.3,0,0.4,0.1c0.1,0.1,0.2,0.2,0.2,0.3
			v2.6c0,0.1,0,0.3-0.2,0.3c-0.1,0.1-0.2,0.1-0.4,0.1h-7.6c-0.3,0-0.4,0.1-0.5,0.2c-0.1,0.2-0.1,0.3-0.1,0.5V30
			c0,0.2,0.1,0.4,0.2,0.5s0.3,0.2,0.7,0.2h9.7c0.1,0,0.3,0.1,0.4,0.2c0.1,0.1,0.2,0.2,0.2,0.4v2.5c0,0.1-0.1,0.3-0.2,0.4
			c-0.1,0.1-0.2,0.2-0.4,0.2H48.8C48.7,34.3,48.5,34.3,48.4,34.2z"/>
		<path class="st13" d="M71,30.3c0,0.1,0,0.1,0,0.2l-0.7,2c0,0.1-0.1,0.2-0.2,0.2c-0.1,0-0.2,0-0.3,0c-0.7-0.3-1.1-0.6-1.4-0.8
			c-0.1-0.1-0.2-0.2-0.2-0.2c0-0.1,0.1-0.3,0.3-0.7c0.2-0.3,0.4-0.8,0.8-1.3c0.1-0.1,0.2-0.2,0.4-0.1l1.2,0.5
			C70.9,30.1,70.9,30.2,71,30.3z M80.9,24.1c0.7,0.4,1.3,0.9,1.8,1.6c0.5,0.7,0.7,1.6,0.7,2.8c0,1.1-0.3,2.1-0.9,3
			c-0.6,0.9-1.5,1.5-2.6,2s-2.4,0.7-3.9,0.7c-0.3,0-0.8,0-1.2-0.1c-0.2,0-0.3-0.1-0.4-0.2c-0.1-0.1-0.1-0.2-0.1-0.4l0.1-0.9
			c0-0.2,0-0.3,0.1-0.6c0-0.2,0-0.4,0.1-0.6c0-0.3,0.2-0.5,0.6-0.5l1.3,0c1,0,1.8-0.2,2.5-0.7s1-1,1-1.7c0-0.5-0.2-1-0.5-1.5
			c-0.2-0.3-0.6-0.6-1.2-0.8c-0.6-0.3-1.4-0.6-2.4-0.9c-1.5-0.5-2.8-1-3.7-1.5s-1.7-1-2.1-1.7c-0.6-0.9-0.8-1.8-0.8-2.8
			c0-1,0.3-1.9,0.9-2.8c0.6-0.9,1.4-1.6,2.4-2.2c1-0.6,2.2-1,3.5-1.1c1,0,1.9,0,2.8,0.2c0.9,0.2,1.7,0.4,2.4,0.7
			c0.6,0.3,1.2,0.7,1.8,1.2c0.1,0.1,0.2,0.2,0.2,0.3C83,15.9,83,16,83,16.1c-0.1,0.2-0.4,0.7-1,1.6l-0.4,0.5
			c-0.1,0.1-0.2,0.1-0.3,0.1c-0.1,0-0.2,0-0.3-0.1c-0.8-0.5-1.5-0.8-2.1-0.9c-0.7-0.2-1.4-0.3-2.1-0.3c-0.8,0-1.6,0.1-2.3,0.4
			c-0.5,0.3-1,0.6-1.3,1c-0.3,0.4-0.5,0.8-0.5,1.1c0,0.6,0.4,1.1,1.1,1.6c0.3,0.2,0.8,0.5,1.7,0.8s1.5,0.7,2.1,0.9
			C79,23.2,80.1,23.7,80.9,24.1z M81.6,18.1C81.6,18.1,81.6,18.1,81.6,18.1L81.6,18.1z"/>
		<path class="st13" d="M93.2,33.3c-1.6-1-2.9-2.3-3.9-3.9c-1-1.7-1.4-3.5-1.4-5.5c0-2,0.5-3.8,1.4-5.4c1-1.7,2.3-3,3.9-4
			s3.4-1.5,5.4-1.5c1.5,0,3,0.3,4.3,0.9c1.4,0.6,2.6,1.5,3.6,2.6c0.1,0.1,0.2,0.3,0.2,0.4c0,0.1-0.1,0.3-0.2,0.4
			c-0.4,0.3-0.8,0.7-1.3,1.1c-0.4,0.4-0.7,0.6-0.9,0.8c-0.1,0.1-0.3,0.2-0.4,0.2c-0.1,0-0.3-0.1-0.4-0.2c-0.6-0.7-1.4-1.2-2.2-1.6
			c-0.8-0.4-1.7-0.6-2.7-0.6c-1.2,0-2.3,0.3-3.4,0.9c-1,0.6-1.9,1.5-2.5,2.5s-0.9,2.2-0.9,3.4s0.3,2.4,0.9,3.4
			c0.6,1,1.4,1.9,2.5,2.5s2.2,0.9,3.4,0.9c0.9,0,1.7-0.2,2.5-0.5c0.8-0.3,1.5-0.8,2.2-1.5c0.2-0.2,0.4-0.2,0.7-0.2
			c0.2,0,0.4,0.1,0.5,0.2c0.2,0.2,0.5,0.4,0.8,0.7s0.7,0.6,0.9,0.8c0.2,0.2,0.3,0.4,0.3,0.7c0,0.2-0.1,0.3-0.2,0.4
			c-1,1.1-2.2,1.9-3.5,2.5c-1.3,0.6-2.8,0.9-4.2,0.9C96.6,34.7,94.8,34.2,93.2,33.3z"/>
		<path class="st13" d="M111.2,34.3c-0.1-0.1-0.1-0.2-0.1-0.3V13.7c0-0.1,0-0.2,0.1-0.3c0.1-0.1,0.2-0.1,0.3-0.1h3.2
			c0.1,0,0.2,0,0.3,0.1c0.1,0.1,0.1,0.2,0.1,0.3v7.9c0,0.2,0.1,0.3,0.2,0.5c0.1,0.1,0.3,0.2,0.5,0.2h5.7c0.2,0,0.3-0.1,0.5-0.2
			c0.1-0.1,0.2-0.3,0.2-0.5v-7.9c0-0.1,0-0.2,0.1-0.3c0.1-0.1,0.2-0.1,0.3-0.1h3.2c0.1,0,0.2,0,0.3,0.1c0.1,0.1,0.1,0.2,0.1,0.3V34
			c0,0.1,0,0.2-0.1,0.3c-0.1,0.1-0.2,0.1-0.3,0.1h-3.2c-0.1,0-0.2,0-0.3-0.1c-0.1-0.1-0.1-0.2-0.1-0.3v-7c0-0.2-0.1-0.4-0.2-0.5
			s-0.3-0.2-0.5-0.2h-5.7c-0.2,0-0.3,0.1-0.5,0.2c-0.1,0.1-0.2,0.3-0.2,0.5v7c0,0.1,0,0.2-0.1,0.3c-0.1,0.1-0.2,0.1-0.3,0.1h-3.2
			C111.3,34.4,111.2,34.4,111.2,34.3z"/>
		<path class="st13" d="M133,31.1c-1-1.1-1.7-2.4-2.2-3.7l-0.1-0.2c-0.4-1.1-0.5-2.2-0.5-3.4c0-1.2,0.2-2.5,0.6-3.7
			c0.4-1.2,1.1-2.3,1.9-3.3c1.1-1.2,2.2-2.1,3.4-2.7s2.6-1,4.3-1.1h0.1c1.7-0.1,3.3,0.2,5,0.9c1,0.4,2,1.1,2.9,2
			c0.9,0.9,1.6,1.7,2,2.6c0.9,1.7,1.4,3.4,1.4,5.4c0,1.1-0.2,2.2-0.5,3.3s-0.8,2.1-1.5,3c-0.5,0.7-1.1,1.3-1.6,1.9
			c-0.6,0.5-1.3,1-2.2,1.5c-1.6,0.8-3.2,1.2-5,1.2c-1.5,0-3-0.3-4.4-0.9C135.2,33.1,134,32.2,133,31.1z M146.2,28.4
			c0.5-0.6,0.9-1.2,1.2-1.8c0.4-0.9,0.6-1.9,0.6-2.8c0-1.3-0.4-2.6-1.1-3.7s-1.7-2-3-2.6c-0.9-0.4-1.9-0.6-2.9-0.6
			c-0.9,0-1.7,0.2-2.6,0.5c-0.8,0.3-1.5,0.8-2.2,1.4l-0.5,0.5c-0.5,0.7-1,1.4-1.2,2.1c-0.3,0.8-0.4,1.6-0.4,2.4c0,1,0.2,2,0.6,2.9
			c0.4,0.9,1,1.7,1.8,2.4c1.3,1.1,2.8,1.6,4.5,1.6c1.1,0,2.1-0.2,3.1-0.7C145,29.6,145.6,29.1,146.2,28.4z"/>
		<path class="st13" d="M158.6,31.1c-1-1.1-1.7-2.4-2.2-3.7l-0.1-0.2c-0.4-1.1-0.5-2.2-0.5-3.4c0-1.2,0.2-2.5,0.6-3.7
			c0.4-1.2,1.1-2.3,1.9-3.3c1.1-1.2,2.2-2.1,3.4-2.7s2.6-1,4.3-1.1h0.1c1.7-0.1,3.3,0.2,5,0.9c1,0.4,2,1.1,2.9,2
			c0.9,0.9,1.6,1.7,2,2.6c0.9,1.7,1.4,3.4,1.4,5.4c0,1.1-0.2,2.2-0.5,3.3s-0.8,2.1-1.5,3c-0.5,0.7-1.1,1.3-1.6,1.9
			c-0.6,0.5-1.3,1-2.2,1.5c-1.6,0.8-3.2,1.2-5,1.2c-1.5,0-3-0.3-4.4-0.9C160.8,33.1,159.6,32.2,158.6,31.1z M171.8,28.4
			c0.5-0.6,0.9-1.2,1.2-1.8c0.4-0.9,0.6-1.9,0.6-2.8c0-1.3-0.4-2.6-1.1-3.7s-1.7-2-3-2.6c-0.9-0.4-1.9-0.6-2.9-0.6
			c-0.9,0-1.7,0.2-2.6,0.5c-0.8,0.3-1.5,0.8-2.2,1.4l-0.5,0.5c-0.5,0.7-1,1.4-1.2,2.1c-0.3,0.8-0.4,1.6-0.4,2.4c0,1,0.2,2,0.6,2.9
			c0.4,0.9,1,1.7,1.8,2.4c1.3,1.1,2.8,1.6,4.5,1.6c1.1,0,2.1-0.2,3.1-0.7C170.6,29.6,171.3,29.1,171.8,28.4z"/>
		<path class="st13" d="M181.8,34.3c-0.1-0.1-0.2-0.3-0.2-0.5V13.9c0-0.2,0.1-0.3,0.2-0.4c0.1-0.1,0.3-0.2,0.4-0.2h3.1
			c0.2,0,0.3,0.1,0.5,0.2c0.1,0.1,0.2,0.3,0.2,0.4v15.9c0,0.2,0.1,0.3,0.2,0.4s0.3,0.2,0.4,0.2h7.3c0.2,0,0.3,0.1,0.5,0.2
			c0.1,0.1,0.2,0.3,0.2,0.4v2.8c0,0.2-0.1,0.3-0.2,0.5s-0.3,0.2-0.5,0.2h-11.7C182,34.4,181.9,34.4,181.8,34.3z"/>
	</g>
</g>
<g id="Designed_By_Freepik">
</g>
</svg>
